<svg xmlns="http://www.w3.org/2000/svg" viewBox="0 0 100 100" fill="none">
  <path d="M50 5 L90 20 V50 C90 75 50 95 50 95 C50 95 10 75 10 50 V20 Z" fill="#be123c" stroke="#000" stroke-width="3"/>
  <path d="M50 5 L90 20 V50 C90 75 50 95 50 95 C50 95 10 75 10 50 V20 Z" fill="url(#g3)" opacity="0.3"/>
  <defs>
    <linearGradient id="g3" x1="0" y1="0" x2="0" y2="1">
      <stop offset="0" stop-color="#fff" stop-opacity="0.3"/>
      <stop offset="1" stop-color="#000" stop-opacity="0.3"/>
    </linearGradient>
  </defs>
  <!-- Halcón estilizado -->
  <path d="M30 35 Q35 25 50 25 Q65 25 70 35 L65 40 Q60 35 50 35 Q40 35 35 40 Z" fill="#000"/>
  <path d="M50 25 L48 45 L52 45 Z" fill="#000"/>
  <circle cx="44" cy="32" r="2" fill="#fff"/>
  <circle cx="56" cy="32" r="2" fill="#fff"/>
  <path d="M30 50 Q40 45 50 50 Q60 45 70 50 L65 60 Q50 55 35 60 Z" fill="#000"/>
  <!-- Palo de hockey -->
  <path d="M35 65 L40 78 Q42 80 44 78 L48 65 Z" fill="#fff" stroke="#000" stroke-width="1"/>
  <path d="M48 65 L60 75 Q62 77 60 79 L46 78 Z" fill="#fff" stroke="#000" stroke-width="1"/>
  <text x="50" y="91" text-anchor="middle" font-family="Arial Black, sans-serif" font-size="6" fill="#fff" font-weight="900">HOCKEY</text>
</svg>
