<svg xmlns="http://www.w3.org/2000/svg" viewBox="0 0 100 100" fill="none">
  <path d="M50 5 L90 20 V50 C90 75 50 95 50 95 C50 95 10 75 10 50 V20 Z" fill="#1d4ed8" stroke="#fff" stroke-width="3"/>
  <path d="M50 5 L90 20 V50 C90 75 50 95 50 95 C50 95 10 75 10 50 V20 Z" fill="url(#g2)" opacity="0.3"/>
  <defs>
    <linearGradient id="g2" x1="0" y1="0" x2="0" y2="1">
      <stop offset="0" stop-color="#fff" stop-opacity="0.3"/>
      <stop offset="1" stop-color="#000" stop-opacity="0.2"/>
    </linearGradient>
  </defs>
  <text x="50" y="50" text-anchor="middle" font-family="Arial Black, sans-serif" font-size="32" fill="#fff" font-weight="900">SM</text>
  <circle cx="50" cy="68" r="11" fill="#fff" stroke="#1d4ed8" stroke-width="1.5"/>
  <path d="M50 57 Q57 60 60 67 Q57 75 50 78 Q43 75 40 67 Q43 60 50 57 Z" fill="none" stroke="#1d4ed8" stroke-width="1.2"/>
  <line x1="40" y1="68" x2="60" y2="68" stroke="#1d4ed8" stroke-width="1.2"/>
  <line x1="50" y1="57" x2="50" y2="79" stroke="#1d4ed8" stroke-width="1.2"/>
  <text x="50" y="91" text-anchor="middle" font-family="Arial Black, sans-serif" font-size="6" fill="#fff" font-weight="900">FUTSAL</text>
</svg>
