<svg xmlns="http://www.w3.org/2000/svg" viewBox="0 0 100 100" fill="none">
  <path d="M50 5 L90 20 V50 C90 75 50 95 50 95 C50 95 10 75 10 50 V20 Z" fill="#000" stroke="#f97316" stroke-width="3"/>
  <path d="M50 5 L90 20 V50 C90 75 50 95 50 95 C50 95 10 75 10 50 V20 Z" fill="url(#g6)" opacity="0.3"/>
  <defs>
    <linearGradient id="g6" x1="0" y1="0" x2="0" y2="1">
      <stop offset="0" stop-color="#f97316" stop-opacity="0.2"/>
      <stop offset="1" stop-color="#000" stop-opacity="0.4"/>
    </linearGradient>
  </defs>
  <!-- Cabeza tigre estilizada -->
  <path d="M30 28 L35 22 L40 28 L50 25 L60 28 L65 22 L70 28 L70 45 Q60 55 50 55 Q40 55 30 45 Z" fill="#f97316"/>
  <path d="M35 30 L40 35 M65 30 L60 35" stroke="#000" stroke-width="2"/>
  <circle cx="42" cy="38" r="2.5" fill="#000"/>
  <circle cx="58" cy="38" r="2.5" fill="#000"/>
  <path d="M48 42 Q50 46 52 42" stroke="#000" stroke-width="1.5" fill="none"/>
  <path d="M44 48 L46 52 M54 48 L56 52" stroke="#000" stroke-width="1.2"/>
  <!-- Pelota oval rugby -->
  <ellipse cx="50" cy="72" rx="14" ry="7" fill="#7c2d12" stroke="#f97316" stroke-width="1.5"/>
  <line x1="40" y1="72" x2="60" y2="72" stroke="#fff" stroke-width="1"/>
  <line x1="44" y1="69" x2="44" y2="75" stroke="#fff" stroke-width="0.8"/>
  <line x1="48" y1="69" x2="48" y2="75" stroke="#fff" stroke-width="0.8"/>
  <line x1="52" y1="69" x2="52" y2="75" stroke="#fff" stroke-width="0.8"/>
  <line x1="56" y1="69" x2="56" y2="75" stroke="#fff" stroke-width="0.8"/>
  <text x="50" y="89" text-anchor="middle" font-family="Arial Black, sans-serif" font-size="5.5" fill="#f97316" font-weight="900">RUGBY 7s</text>
</svg>
